<svg xmlns="http://www.w3.org/2000/svg" width="160" height="49" viewBox="0 0 160 49" fill="#FFF" style="background-color:white">
  <path d="M34.2629 13.1923C32.1559 11.0853 28.6531 9.99822 23.862 9.97137C19.0709 9.99822 15.5682 11.0853 13.4611 13.1923C11.3541 15.2993 10.2671 18.7886 10.2402 23.5932C10.2671 28.3843 11.3541 31.887 13.4611 33.994C15.5682 36.101 19.0709 37.1881 23.862 37.2149C28.6531 37.1881 32.1559 36.101 34.2629 33.994C36.3699 31.887 37.457 28.3843 37.4838 23.5932C37.457 18.7886 36.3699 15.2993 34.2629 13.1923Z" fill="#0A8CCC"></path>
  <path d="M37.6449 36.7452C37.5509 36.8526 37.4436 36.96 37.3496 37.0673C33.82 40.5969 28.6666 41.5364 23.8621 41.5632C19.0575 41.5364 13.9041 40.5969 10.3745 37.0673C10.2671 36.96 10.1732 36.8526 10.0792 36.7452C8.77744 37.2552 7.69038 37.9397 6.83147 38.7986C6.44227 39.1743 6.10676 39.6172 5.78467 40.0869C6.02624 40.3688 6.28123 40.6372 6.54964 40.9056C11.0858 45.4417 17.6886 46.6496 23.8621 46.6764C30.0355 46.6496 36.6383 45.4283 41.1745 40.9056C41.4429 40.6372 41.6979 40.3688 41.9394 40.0869C41.6308 39.6172 41.2818 39.1878 40.8926 38.7986C40.0337 37.9397 38.9467 37.2552 37.6449 36.7452Z" fill="#0A8CCC"></path>
  <path d="M41.1745 6.28075C36.6383 1.74463 30.0355 0.53679 23.862 0.509949C17.6886 0.53679 11.0857 1.74463 6.54961 6.28075C2.02691 10.8169 0.80565 17.4198 0.778809 23.5932C0.80565 27.8743 1.39615 32.3702 3.27502 36.2353C3.43606 36.0608 3.59711 35.8863 3.75816 35.7119C4.8989 34.5711 6.22752 33.6988 7.65009 33.0412C6.33489 30.1155 5.90543 26.7738 5.89201 23.5798C5.90543 18.7886 6.84487 13.6352 10.3745 10.1056C13.904 6.576 19.0575 5.63657 23.862 5.60973C28.6666 5.63657 33.82 6.576 37.3496 10.1056C40.8792 13.6352 41.8186 18.7886 41.8455 23.5932C41.8321 26.7872 41.4026 30.1289 40.0874 33.0546C41.51 33.7122 42.8386 34.5845 43.9793 35.7253C44.1538 35.8998 44.3014 36.0742 44.4625 36.2487C46.3413 32.3836 46.9318 27.8877 46.9587 23.6066C46.905 17.4198 45.6972 10.8035 41.1745 6.28075Z" fill="#0A8CCC"></path>
  <path d="M59.1848 11.7429C60.1913 11.461 61.5065 11.1792 63.117 10.9242C64.7274 10.6692 66.5124 10.535 68.4718 10.535C70.3104 10.535 71.8537 10.79 73.0884 11.2866C74.3231 11.7966 75.3162 12.4944 76.0409 13.407C76.779 14.3196 77.289 15.4067 77.5977 16.695C77.9064 17.9834 78.054 19.3791 78.054 20.9091V34.1819H72.82V21.7277C72.82 20.5199 72.7395 19.4865 72.5784 18.641C72.4174 17.7955 72.1624 17.0976 71.8 16.5608C71.4377 16.024 70.9546 15.6348 70.3238 15.3932C69.7064 15.1517 68.9549 15.0309 68.0557 15.0309C67.3981 15.0309 66.7003 15.0712 65.9756 15.1651C65.2508 15.2456 64.7275 15.3261 64.3785 15.3798V34.1819C61.4931 34.1819 59.1445 31.8468 59.1445 28.9479V11.7429H59.1848Z" fill="#121532"></path>
  <path d="M100.533 24.0897C100.184 23.3382 99.7144 22.694 99.1104 22.1706C98.5199 21.6606 97.7952 21.2311 96.99 20.9225C96.2116 20.6138 95.3527 20.3454 94.467 20.1307C93.9972 20.0367 93.4604 19.9294 92.8297 19.8086C92.2392 19.7012 91.6755 19.5267 91.1521 19.2986C90.6555 19.0839 90.2127 18.802 89.8503 18.4531C89.5416 18.1578 89.394 17.7687 89.394 17.2721C89.394 16.6682 89.649 16.2253 90.2127 15.9166C90.8434 15.5543 91.6084 15.3664 92.4673 15.3664C93.3933 15.3664 94.1851 15.5543 94.8159 15.9166C95.4601 16.2924 96.0237 16.7621 96.4532 17.3124L96.7485 17.6747L97.1242 17.3929L100.278 15.004L100.627 14.7356L100.399 14.3599C99.5667 13.0178 98.426 12.0381 97.0169 11.461C95.648 10.8974 94.1851 10.6155 92.6955 10.6155C91.6621 10.6155 90.6287 10.7632 89.6222 11.045C88.6022 11.3268 87.6628 11.7563 86.8576 12.3334C86.0389 12.9104 85.3679 13.6486 84.8713 14.5343C84.3613 15.4335 84.1064 16.4803 84.1064 17.6747C84.1064 18.7752 84.3077 19.7146 84.6969 20.4662C85.0861 21.2177 85.6229 21.8485 86.2805 22.345C86.9112 22.8282 87.6628 23.2174 88.4814 23.4992C89.2732 23.7676 90.1187 24.0226 91.0045 24.2373C91.4608 24.3313 91.9842 24.4386 92.5613 24.5728C93.1115 24.707 93.6483 24.8681 94.1449 25.0828C94.6012 25.2841 95.0038 25.5525 95.3393 25.9015C95.6211 26.1967 95.7688 26.5725 95.7688 27.0556C95.7688 27.4046 95.6748 27.6998 95.4735 27.9682C95.2588 28.2635 94.9769 28.4916 94.6414 28.6929C94.2791 28.8942 93.863 29.0419 93.3799 29.1358C92.8968 29.2297 92.4002 29.2834 91.9171 29.2834C90.8434 29.2834 89.9308 29.0553 89.2061 28.5856C88.4278 28.1024 87.7165 27.5253 87.0857 26.8946L86.777 26.5859L86.4415 26.8677L83.3817 29.3908L83.0327 29.6726L83.3011 30.035C84.4016 31.5381 85.6765 32.5983 87.0857 33.1754C88.468 33.739 90.1053 34.0209 91.9305 34.0209C93.0176 34.0209 94.1046 33.9001 95.1648 33.6451C96.2519 33.3901 97.2316 32.9741 98.0905 32.4104C98.9628 31.8333 99.6741 31.0818 100.224 30.1558C100.775 29.2297 101.056 28.1024 101.056 26.8275C101.056 25.7673 100.882 24.8412 100.533 24.0897Z" fill="#121532"></path>
  <path d="M118.047 10.4411H115.148C110.25 10.4411 106.277 14.4136 106.277 19.312V25.311C106.277 30.2095 110.25 34.1819 115.148 34.1819H118.047C122.946 34.1819 126.918 30.2095 126.918 25.311V19.312C126.918 14.4136 122.946 10.4411 118.047 10.4411ZM121.496 25.1231C121.496 27.3777 119.671 29.2029 117.416 29.2029H115.766C113.511 29.2029 111.686 27.3777 111.686 25.1231V19.4999C111.686 17.2453 113.511 15.4201 115.766 15.4201H117.416C119.671 15.4201 121.496 17.2453 121.496 19.4999V25.1231Z" fill="#121532"></path>
  <path d="M142.995 12.6152H137.99V9.9714C137.99 8.17305 140.164 7.12625 143.076 7.07257V1.77148C135.158 1.77148 132.715 5.31449 132.715 9.67615V12.6152V16.8024V34.1819H137.99V17.2856H142.995V12.6152Z" fill="#121532"></path>
  <path d="M159.14 17.2319H154.135V25.982C154.135 27.7804 156.309 28.8272 159.221 28.8809V34.1819C151.303 34.1819 148.86 30.6389 148.86 26.2773V22.8014V18.131V1.77148C151.773 1.77148 154.135 4.13349 154.135 7.04573V12.5615H159.14V17.2319Z" fill="#121532"></path>
  <path d="M51.6559 45.4283C51.562 45.6027 51.4278 45.7235 51.2936 45.7906C51.146 45.8577 50.9715 45.898 50.7568 45.9248L49.6831 45.9517H49.1732C48.4887 45.9517 48.019 45.8577 47.8043 45.6564C47.5761 45.4551 47.4688 45.1733 47.4688 44.7841C47.4688 44.368 47.5493 44.0728 47.6969 43.8983C47.8579 43.7239 48.0727 43.6299 48.3545 43.6031C48.6363 43.5762 48.8913 43.5628 49.1061 43.5494C49.3208 43.5494 49.5221 43.536 49.71 43.536L50.8105 43.5628C51.0118 43.5628 51.1728 43.5897 51.2936 43.6568C51.4144 43.7239 51.5352 43.8312 51.6559 43.9923V43.5762C51.6559 43.3347 51.6425 43.1468 51.6023 42.9857C51.562 42.8247 51.4815 42.7039 51.3473 42.61C51.2131 42.516 50.9849 42.4623 50.6628 42.4489C50.3407 42.4355 50.0992 42.4221 49.9515 42.4221C49.7637 42.4221 49.5758 42.4221 49.4013 42.4221C49.2268 42.4221 49.0255 42.4355 48.8242 42.4623C48.6095 42.4892 48.4753 42.5563 48.3948 42.6637C48.3142 42.771 48.274 42.9186 48.274 43.1334H47.6432C47.6432 42.7173 47.7372 42.4221 47.9116 42.261C48.0861 42.1 48.3679 41.9926 48.7303 41.9524C49.0926 41.9121 49.4281 41.8987 49.7368 41.8987C50.1126 41.8987 50.4347 41.9121 50.6762 41.9255C50.9312 41.9389 51.1996 41.9792 51.4815 42.0597C51.7633 42.1403 51.9646 42.2879 52.0854 42.516C52.1928 42.7442 52.2464 43.0528 52.2464 43.4286V45.8577H51.6559V45.4283ZM49.6697 45.4283H49.8308C50.1126 45.4283 50.3676 45.4149 50.5823 45.4014C50.797 45.388 51.0252 45.3477 51.2667 45.2806C51.5083 45.2135 51.6291 45.0257 51.6291 44.717C51.6291 44.4486 51.5486 44.2875 51.3875 44.207C51.2265 44.1265 51.0386 44.0862 50.8507 44.0594C50.6628 44.046 50.4481 44.0325 50.2065 44.0325L49.6831 44.046C49.2805 44.046 48.9987 44.0594 48.8376 44.0728C48.6766 44.0862 48.529 44.1265 48.3948 44.1667C48.2606 44.2204 48.1666 44.2875 48.1264 44.3949C48.0861 44.5023 48.0593 44.623 48.0593 44.7707C48.0593 44.972 48.1129 45.1196 48.2337 45.2404C48.3545 45.3612 48.5961 45.4014 48.9718 45.4014L49.6697 45.4283Z" fill="#121532"></path>
  <path d="M56.165 44.5559H56.7824V44.7438C56.7824 45.227 57.0374 45.4283 57.7218 45.4283H59.1444C60.1375 45.4283 60.4596 45.388 60.4596 44.7975V44.7707C60.4596 44.3949 60.3522 44.1802 59.5604 44.1802H57.5071C56.5677 44.1802 56.2187 43.8849 56.2187 43.1334V42.9052C56.2187 42.261 56.5811 41.9121 58.2184 41.9121H59.2383C60.7414 41.9121 60.9427 42.3416 60.9427 42.9052V43.12H60.3254V43.0797C60.3254 42.4758 59.9228 42.4623 59.1981 42.4623H58.0439C57.091 42.4623 56.8897 42.5563 56.8897 42.9992V43.1468C56.8897 43.4689 56.9971 43.6568 57.695 43.6568H59.4531C60.4462 43.6568 61.1306 43.7507 61.1306 44.8244V44.8378C61.1306 45.9383 60.1107 45.9785 59.292 45.9785H58.0707C57.091 45.9785 56.165 45.9785 56.165 44.7975V44.5559Z" fill="#121532"></path>
  <path d="M62.0166 41.9658H62.6339V42.5966H62.6474C62.8353 42.1134 63.3855 41.9121 63.976 41.9121H65.2375C66.177 41.9121 67.0627 42.2074 67.0627 43.5763V44.2741C67.0627 45.5491 66.499 45.9785 65.1302 45.9785H63.8552C63.1573 45.9785 62.8353 45.804 62.701 45.388H62.6876V47.2937H62.0166V41.9658ZM66.3917 43.5763C66.3917 42.8113 66.1501 42.4489 65.2107 42.4489H63.8955C63.0231 42.4489 62.6876 42.9052 62.6876 43.5897V44.3412C62.6876 45.2807 63.2781 45.4417 63.976 45.4417H65.157C65.9354 45.4417 66.3917 45.2672 66.3917 44.3546V43.5763Z" fill="#121532"></path>
  <path d="M75.4905 41.9658H76.1078V42.5429H76.1212C76.3628 42.0329 76.8728 41.9121 77.3291 41.9121H77.9598C79.2079 41.9121 79.6106 42.3147 79.6106 43.281V43.7507H78.9932V43.5763C78.9932 42.5966 78.7919 42.4489 77.6109 42.4489H77.1949C76.497 42.4489 76.1481 42.8918 76.1481 43.4018V45.9114H75.4771V41.9658H75.4905Z" fill="#121532"></path>
  <path d="M80.9661 42.516H80.0938V41.9792H80.9661V41.0398H81.6371V41.9792H84.2809V42.516H81.6371V44.4754C81.6371 45.2136 81.8921 45.4283 82.6168 45.4283H82.8315C83.7173 45.4283 83.8515 45.2404 83.8515 44.4218V44.1265H84.3883V44.556C84.3883 45.3478 84.3078 45.9651 82.8718 45.9651H82.5094C81.2613 45.9651 80.9661 45.3612 80.9661 44.717V42.516Z" fill="#121532"></path>
  <path d="M85.2339 41.9658H86.6296V42.7173H86.643C86.8175 42.0866 87.4214 41.9121 88.0924 41.9121C89.1795 41.9121 89.5955 42.3818 89.5955 43.4689C89.5955 43.5628 89.5821 43.6836 89.5821 43.8178H88.2938C88.2938 43.3213 88.173 43.0797 87.5825 43.0797C87.0725 43.0797 86.7101 43.2676 86.7101 43.7507V45.9248H85.2339V41.9658Z" fill="#121532"></path>
  <path d="M90.1323 44.5291C90.1323 43.4555 90.8704 43.3884 92.3199 43.3884C93.1251 43.3884 93.5814 43.4152 93.8632 43.7105V43.3615C93.8632 42.9723 93.7424 42.8381 93.1653 42.8381H92.293C91.8636 42.8381 91.7428 42.8784 91.7159 43.1602H90.28C90.28 42.1 90.8033 41.9121 92.0649 41.9121H93.7827C94.8026 41.9121 95.3395 42.3952 95.3395 43.3213V45.9114H93.9303V45.4685C93.5143 45.898 93.3667 45.9785 92.6285 45.9785H91.622C90.7228 45.9919 90.1323 45.7906 90.1323 44.8512V44.5291ZM92.7896 45.0525C93.8095 45.0525 93.9035 44.8915 93.9035 44.6365C93.9035 44.3412 93.823 44.2339 93.0043 44.2339H92.3467C91.7159 44.2339 91.5952 44.3681 91.5952 44.7036C91.5952 44.9586 91.7965 45.0525 92.3735 45.0525H92.7896Z" fill="#121532"></path>
  <path d="M96.1045 43.5897C96.1045 42.5831 96.3326 41.9121 98.2115 41.9121H98.6544C99.2717 41.9121 99.8891 42.0866 99.983 42.7039H99.9964V40.3285H101.486V45.9248H100.09V45.2001H100.077C99.9159 45.6833 99.5401 45.9919 98.641 45.9919H98.2115C96.3326 45.9919 96.1045 45.3209 96.1045 44.3144V43.5897ZM97.5405 44.1802C97.5405 44.623 97.6076 44.8646 98.3189 44.8646H99.1912C99.7817 44.8646 100.09 44.7304 100.09 44.1399V43.7507C100.09 43.1602 99.7817 43.026 99.1912 43.026H98.3189C97.6076 43.026 97.5405 43.2676 97.5405 43.7105V44.1802Z" fill="#121532"></path>
  <path d="M102.304 44.5291C102.304 43.4555 103.043 43.3884 104.479 43.3884C105.297 43.3884 105.74 43.4152 106.022 43.7105V43.3615C106.022 42.9723 105.901 42.8381 105.324 42.8381H104.452C104.022 42.8381 103.901 42.8784 103.875 43.1602H102.439C102.439 42.1 102.962 41.9121 104.224 41.9121H105.941C106.961 41.9121 107.498 42.3952 107.498 43.3213V45.9114H106.089V45.4685C105.673 45.898 105.525 45.9785 104.787 45.9785H103.781C102.882 45.9919 102.291 45.7906 102.291 44.8512V44.5291H102.304ZM104.948 45.0525C105.968 45.0525 106.062 44.8915 106.062 44.6365C106.062 44.3412 105.982 44.2339 105.163 44.2339H104.505C103.875 44.2339 103.754 44.3681 103.754 44.7036C103.754 44.9586 103.955 45.0525 104.532 45.0525H104.948Z" fill="#121532"></path>
  <path d="M108.465 41.9658H109.861V42.7173H109.874C110.048 42.0866 110.652 41.9121 111.323 41.9121C112.41 41.9121 112.826 42.3818 112.826 43.4689C112.826 43.5628 112.813 43.6836 112.813 43.8178H111.538C111.538 43.3213 111.417 43.0797 110.827 43.0797C110.317 43.0797 109.955 43.2676 109.955 43.7507V45.9248H108.465V41.9658Z" fill="#121532"></path>
  <path d="M71.8404 41.335H70.6191C69.0086 41.335 67.8276 41.7242 67.8276 43.3884V44.5023C67.8276 46.1664 69.0086 46.5556 70.6191 46.5556H71.8404C73.4508 46.5556 74.6318 46.1664 74.6318 44.5023V43.3884C74.6318 41.7242 73.4508 41.335 71.8404 41.335ZM73.8937 44.3681C73.8937 45.6698 72.9677 45.9651 71.7196 45.9651H70.7667C69.5052 45.9651 68.5926 45.6698 68.5926 44.3681V43.4957C68.5926 42.1939 69.5186 41.8987 70.7667 41.8987H71.7196C72.9811 41.8987 73.8937 42.1939 73.8937 43.4957V44.3681Z" fill="#121532"></path>
  <path d="M56.165 44.5559H56.7824V44.7438C56.7824 45.227 57.0374 45.4283 57.7218 45.4283H59.1444C60.1375 45.4283 60.4596 45.388 60.4596 44.7975V44.7707C60.4596 44.3949 60.3522 44.1802 59.5604 44.1802H57.5071C56.5677 44.1802 56.2187 43.8849 56.2187 43.1334V42.9052C56.2187 42.261 56.5811 41.9121 58.2184 41.9121H59.2383C60.7414 41.9121 60.9427 42.3416 60.9427 42.9052V43.12H60.3254V43.0797C60.3254 42.4758 59.9228 42.4623 59.1981 42.4623H58.0439C57.091 42.4623 56.8897 42.5563 56.8897 42.9992V43.1468C56.8897 43.4689 56.9971 43.6568 57.695 43.6568H59.4531C60.4462 43.6568 61.1306 43.7507 61.1306 44.8244V44.8378C61.1306 45.9383 60.1107 45.9785 59.292 45.9785H58.0707C57.091 45.9785 56.165 45.9785 56.165 44.7975V44.5559Z" fill="#121532"></path>
  <path d="M62.0166 41.9658H62.6339V42.5966H62.6474C62.8353 42.1134 63.3855 41.9121 63.976 41.9121H65.2375C66.177 41.9121 67.0627 42.2074 67.0627 43.5763V44.2741C67.0627 45.5491 66.499 45.9785 65.1302 45.9785H63.8552C63.1573 45.9785 62.8353 45.804 62.701 45.388H62.6876V47.2937H62.0166V41.9658ZM66.3917 43.5763C66.3917 42.8113 66.1501 42.4489 65.2107 42.4489H63.8955C63.0231 42.4489 62.6876 42.9052 62.6876 43.5897V44.3412C62.6876 45.2807 63.2781 45.4417 63.976 45.4417H65.157C65.9354 45.4417 66.3917 45.2672 66.3917 44.3546V43.5763Z" fill="#121532"></path>
  <path d="M75.4905 41.9658H76.1078V42.5429H76.1212C76.3628 42.0329 76.8728 41.9121 77.3291 41.9121H77.9598C79.2079 41.9121 79.6106 42.3147 79.6106 43.281V43.7507H78.9932V43.5763C78.9932 42.5966 78.7919 42.4489 77.6109 42.4489H77.1949C76.497 42.4489 76.1481 42.8918 76.1481 43.4018V45.9114H75.4771V41.9658H75.4905Z" fill="#121532"></path>
  <path d="M80.9661 42.516H80.0938V41.9792H80.9661V41.0398H81.6371V41.9792H84.2809V42.516H81.6371V44.4754C81.6371 45.2136 81.8921 45.4283 82.6168 45.4283H82.8315C83.7173 45.4283 83.8515 45.2404 83.8515 44.4218V44.1265H84.3883V44.556C84.3883 45.3478 84.3078 45.9651 82.8718 45.9651H82.5094C81.2613 45.9651 80.9661 45.3612 80.9661 44.717V42.516Z" fill="#121532"></path>
  <path d="M85.2339 41.9658H86.6296V42.7173H86.643C86.8175 42.0866 87.4214 41.9121 88.0924 41.9121C89.1795 41.9121 89.5955 42.3818 89.5955 43.4689C89.5955 43.5628 89.5821 43.6836 89.5821 43.8178H88.2938C88.2938 43.3213 88.173 43.0797 87.5825 43.0797C87.0725 43.0797 86.7101 43.2676 86.7101 43.7507V45.9248H85.2339V41.9658Z" fill="#121532"></path>
  <path d="M90.1323 44.5291C90.1323 43.4555 90.8704 43.3884 92.3199 43.3884C93.1251 43.3884 93.5814 43.4152 93.8632 43.7105V43.3615C93.8632 42.9723 93.7424 42.8381 93.1653 42.8381H92.293C91.8636 42.8381 91.7428 42.8784 91.7159 43.1602H90.28C90.28 42.1 90.8033 41.9121 92.0649 41.9121H93.7827C94.8026 41.9121 95.3395 42.3952 95.3395 43.3213V45.9114H93.9303V45.4685C93.5143 45.898 93.3667 45.9785 92.6285 45.9785H91.622C90.7228 45.9919 90.1323 45.7906 90.1323 44.8512V44.5291ZM92.7896 45.0525C93.8095 45.0525 93.9035 44.8915 93.9035 44.6365C93.9035 44.3412 93.823 44.2339 93.0043 44.2339H92.3467C91.7159 44.2339 91.5952 44.3681 91.5952 44.7036C91.5952 44.9586 91.7965 45.0525 92.3735 45.0525H92.7896Z" fill="#121532"></path>
  <path d="M96.1045 43.5897C96.1045 42.5831 96.3326 41.9121 98.2115 41.9121H98.6544C99.2717 41.9121 99.8891 42.0866 99.983 42.7039H99.9964V40.3285H101.486V45.9248H100.09V45.2001H100.077C99.9159 45.6833 99.5401 45.9919 98.641 45.9919H98.2115C96.3326 45.9919 96.1045 45.3209 96.1045 44.3144V43.5897ZM97.5405 44.1802C97.5405 44.623 97.6076 44.8646 98.3189 44.8646H99.1912C99.7817 44.8646 100.09 44.7304 100.09 44.1399V43.7507C100.09 43.1602 99.7817 43.026 99.1912 43.026H98.3189C97.6076 43.026 97.5405 43.2676 97.5405 43.7105V44.1802Z" fill="#121532"></path>
  <path d="M102.304 44.5291C102.304 43.4555 103.043 43.3884 104.479 43.3884C105.297 43.3884 105.74 43.4152 106.022 43.7105V43.3615C106.022 42.9723 105.901 42.8381 105.324 42.8381H104.452C104.022 42.8381 103.901 42.8784 103.875 43.1602H102.439C102.439 42.1 102.962 41.9121 104.224 41.9121H105.941C106.961 41.9121 107.498 42.3952 107.498 43.3213V45.9114H106.089V45.4685C105.673 45.898 105.525 45.9785 104.787 45.9785H103.781C102.882 45.9919 102.291 45.7906 102.291 44.8512V44.5291H102.304ZM104.948 45.0525C105.968 45.0525 106.062 44.8915 106.062 44.6365C106.062 44.3412 105.982 44.2339 105.163 44.2339H104.505C103.875 44.2339 103.754 44.3681 103.754 44.7036C103.754 44.9586 103.955 45.0525 104.532 45.0525H104.948Z" fill="#121532"></path>
  <path d="M108.465 41.9658H109.861V42.7173H109.874C110.048 42.0866 110.652 41.9121 111.323 41.9121C112.41 41.9121 112.826 42.3818 112.826 43.4689C112.826 43.5628 112.813 43.6836 112.813 43.8178H111.538C111.538 43.3213 111.417 43.0797 110.827 43.0797C110.317 43.0797 109.955 43.2676 109.955 43.7507V45.9248H108.465V41.9658Z" fill="#121532"></path>
  <path d="M71.9075 42.4355H70.552C69.7736 42.4355 69.2368 42.6099 69.2368 43.536V44.3278C69.2368 45.2538 69.7736 45.4282 70.552 45.4282H71.9075C72.6859 45.4282 73.2227 45.2538 73.2227 44.3278V43.536C73.2227 42.6234 72.6859 42.4355 71.9075 42.4355Z" fill="#121532"></path>
  <path d="M71.8404 41.335H70.6191C69.0086 41.335 67.8276 41.7242 67.8276 43.3884V44.5023C67.8276 46.1664 69.0086 46.5556 70.6191 46.5556H71.8404C73.4508 46.5556 74.6318 46.1664 74.6318 44.5023V43.3884C74.6318 41.7242 73.4508 41.335 71.8404 41.335ZM73.8937 44.3681C73.8937 45.6698 72.9677 45.9651 71.7196 45.9651H70.7667C69.5052 45.9651 68.5926 45.6698 68.5926 44.3681V43.4957C68.5926 42.1939 69.5186 41.8987 70.7667 41.8987H71.7196C72.9811 41.8987 73.8937 42.1939 73.8937 43.4957V44.3681Z" fill="#121532"></path>
  <path d="M118.879 45.992L118.222 46.0054C117.363 46.0054 116.732 45.8846 116.343 45.6296C115.954 45.3746 115.766 44.8512 115.766 44.0326C115.766 43.7105 115.779 43.4555 115.806 43.2542C115.833 43.0529 115.913 42.8382 116.061 42.6234C116.209 42.3953 116.437 42.2342 116.759 42.1403C117.081 42.0464 117.457 41.9927 117.886 41.9927L118.235 42.0061C118.799 42.0061 119.242 42.0195 119.537 42.0598C119.832 42.1 120.1 42.2208 120.329 42.4221C120.557 42.6234 120.678 42.9589 120.678 43.4287H120.074C120.074 43.2542 120.047 43.1066 119.993 42.9858C119.939 42.865 119.845 42.7711 119.738 42.7174C119.617 42.6503 119.456 42.61 119.228 42.5698C119 42.5429 118.718 42.5295 118.369 42.5295H118.275C117.873 42.5295 117.591 42.5429 117.43 42.5563C117.269 42.5698 117.094 42.6234 116.906 42.704C116.718 42.7845 116.598 42.9053 116.544 43.0663C116.49 43.2274 116.463 43.3884 116.45 43.5226C116.437 43.6568 116.437 43.8044 116.437 43.9521V44.0728C116.437 44.5828 116.504 44.9318 116.638 45.1062C116.772 45.2807 116.96 45.3881 117.188 45.4283C117.416 45.4686 117.631 45.482 117.832 45.4954C118.034 45.5088 118.235 45.5088 118.463 45.5088C118.584 45.5088 118.732 45.5088 118.906 45.5088C119.08 45.5088 119.322 45.4686 119.658 45.3881C119.98 45.3075 120.154 45.0391 120.154 44.5828H120.758C120.758 45.1331 120.597 45.5088 120.288 45.7101C119.926 45.898 119.47 45.992 118.879 45.992Z" fill="#121532"></path>
  <path d="M124.1 42.0061C124.771 42.0061 125.267 42.0329 125.603 42.1C125.938 42.1672 126.207 42.3416 126.408 42.61C126.609 42.8784 126.717 43.3213 126.717 43.9252C126.717 44.8512 126.542 45.4283 126.18 45.6565C125.818 45.8846 125.133 46.0054 124.086 46.0054C123.16 46.0054 122.516 45.898 122.127 45.6699C121.738 45.4417 121.55 44.9049 121.55 44.046C121.55 43.4421 121.644 42.9724 121.818 42.6503C121.993 42.3282 122.275 42.1403 122.65 42.1C123.026 42.0598 123.308 42.0329 123.482 42.0195C123.657 42.0061 123.872 42.0061 124.1 42.0061ZM124.1 45.5088C124.838 45.5088 125.348 45.4417 125.656 45.321C125.952 45.1868 126.099 44.8244 126.099 44.1936C126.099 43.7105 126.046 43.3347 125.938 43.0663C125.831 42.7979 125.643 42.6369 125.348 42.5966C125.053 42.5563 124.824 42.5295 124.65 42.5295C124.475 42.5295 124.261 42.5161 124.033 42.5161H123.858C123.214 42.5161 122.771 42.5966 122.543 42.7711C122.315 42.9455 122.194 43.3482 122.194 44.0058C122.194 44.6231 122.315 45.0257 122.556 45.227C122.798 45.4283 123.241 45.5088 123.885 45.5088H124.1Z" fill="#121532"></path>
  <path d="M128.327 42.6771C128.434 42.3953 128.636 42.2074 128.904 42.1269C129.173 42.0464 129.521 42.0061 129.924 42.0061H130.045C130.582 42.0061 131.011 42.0464 131.333 42.1403C131.655 42.2342 131.883 42.4624 132.031 42.8247C132.179 42.4624 132.407 42.2342 132.702 42.1403C132.997 42.0464 133.413 41.9927 133.923 41.9927C134.648 41.9927 135.198 42.1 135.547 42.3013C135.91 42.5027 136.084 42.9455 136.084 43.6031V45.9517H135.494V43.6031C135.494 43.1468 135.373 42.8516 135.131 42.704C134.89 42.5698 134.514 42.5027 133.991 42.5027H133.789C133.145 42.5027 132.716 42.5966 132.514 42.7845C132.3 42.9724 132.192 43.2408 132.192 43.6031V45.9517H131.602V43.6031C131.602 43.2274 131.508 42.959 131.32 42.7711C131.132 42.5966 130.689 42.5027 130.018 42.5027C129.293 42.5027 128.824 42.5966 128.622 42.7979C128.421 42.9992 128.314 43.3079 128.314 43.7239V45.9517H127.723V42.0464H128.314V42.6771H128.327Z" fill="#121532"></path>
  <path d="M137.802 42.6771C137.936 42.3953 138.124 42.2208 138.352 42.1269C138.58 42.0464 138.889 41.9927 139.265 41.9927H139.882C140.795 41.9927 141.425 42.1135 141.774 42.355C142.123 42.5966 142.311 43.1334 142.311 43.9923C142.311 44.6902 142.19 45.2002 141.962 45.5223C141.734 45.8443 141.278 46.0054 140.607 46.0054H139.882H139.037C138.715 46.0054 138.446 45.9651 138.245 45.8712C138.044 45.7772 137.896 45.5894 137.802 45.321V47.6561H137.211V42.0732H137.802V42.6771ZM141.68 44.0326C141.68 43.3347 141.573 42.9053 141.345 42.7576C141.117 42.5966 140.634 42.5295 139.869 42.5295H139.667C139.399 42.5295 139.184 42.5295 139.037 42.5429C138.889 42.5563 138.688 42.5832 138.446 42.6369C138.205 42.6905 138.043 42.8382 137.95 43.0663C137.856 43.2945 137.815 43.6166 137.815 44.0326C137.815 44.7439 137.95 45.1599 138.231 45.3075C138.513 45.4417 139.063 45.5088 139.882 45.5088C140.607 45.5088 141.077 45.4283 141.318 45.2673C141.56 45.0928 141.68 44.6902 141.68 44.0326Z" fill="#121532"></path>
  <path d="M147.358 45.4954C147.264 45.6699 147.129 45.7907 146.995 45.8578C146.848 45.9249 146.673 45.9651 146.458 45.992L145.385 46.0188H144.875C144.19 46.0188 143.721 45.9249 143.506 45.7236C143.278 45.5222 143.17 45.2404 143.17 44.8512C143.17 44.4352 143.251 44.1399 143.399 43.9655C143.56 43.791 143.774 43.6971 144.056 43.6702C144.338 43.6434 144.593 43.63 144.808 43.6165C145.022 43.6165 145.224 43.6031 145.412 43.6031L146.512 43.63C146.713 43.63 146.874 43.6568 146.995 43.7239C147.116 43.791 147.237 43.8984 147.358 44.0594V43.6434C147.358 43.4018 147.344 43.2139 147.304 43.0529C147.264 42.8918 147.183 42.771 147.049 42.6771C146.915 42.5832 146.687 42.5295 146.364 42.5161C146.042 42.5026 145.801 42.4892 145.653 42.4892C145.465 42.4892 145.277 42.4892 145.103 42.4892C144.928 42.4892 144.727 42.5026 144.526 42.5295C144.311 42.5563 144.177 42.6234 144.096 42.7308C144.016 42.8382 143.976 42.9858 143.976 43.2005H143.345C143.345 42.7845 143.439 42.4892 143.613 42.3282C143.788 42.1671 144.07 42.0598 144.432 42.0195C144.794 41.9792 145.13 41.9658 145.438 41.9658C145.814 41.9658 146.136 41.9792 146.378 41.9927C146.633 42.0061 146.901 42.0463 147.183 42.1269C147.465 42.2074 147.666 42.355 147.787 42.5832C147.894 42.8113 147.948 43.12 147.948 43.4958V45.9249H147.358V45.4954ZM145.385 45.4954H145.546C145.828 45.4954 146.083 45.482 146.297 45.4686C146.512 45.4551 146.74 45.4149 146.982 45.3478C147.223 45.2807 147.344 45.0928 147.344 44.7841C147.344 44.5157 147.264 44.3547 147.103 44.2741C146.942 44.1936 146.754 44.1534 146.566 44.1265C146.378 44.1131 146.163 44.0997 145.922 44.0997L145.398 44.1131C144.996 44.1131 144.714 44.1265 144.553 44.1399C144.392 44.1534 144.244 44.1936 144.11 44.2339C143.976 44.2741 143.882 44.3547 143.841 44.462C143.801 44.5694 143.774 44.6902 143.774 44.8378C143.774 45.0391 143.828 45.1867 143.949 45.3075C144.07 45.4149 144.311 45.4686 144.687 45.4686L145.385 45.4954Z" fill="#121532"></path>
  <path d="M149.666 42.865C149.8 42.4892 150.015 42.2477 150.31 42.1537C150.605 42.0598 151.008 42.0061 151.518 42.0061H151.598C152.015 42.0061 152.35 42.0329 152.632 42.0732C152.914 42.1135 153.142 42.2208 153.343 42.3685C153.544 42.5295 153.665 42.704 153.719 42.8919C153.773 43.0797 153.799 43.3213 153.799 43.6166V45.9651H153.209V43.6702C153.209 43.1871 153.075 42.865 152.82 42.7308C152.551 42.5832 152.149 42.5161 151.598 42.5161C150.968 42.5161 150.485 42.5832 150.162 42.7308C149.84 42.8784 149.679 43.2139 149.679 43.7642V45.9651H149.089V42.0598H149.679V42.865H149.666Z" fill="#121532"></path>
  <path d="M159.141 42.0598L156.953 46.2872C156.658 46.8509 156.403 47.2535 156.175 47.4816C155.946 47.7098 155.571 47.8171 155.061 47.8171L154.765 47.8037V47.334L154.927 47.3474C155.329 47.3474 155.611 47.2535 155.785 47.0522C155.946 46.8509 156.175 46.4751 156.456 45.9249H156.228L154.027 42.0598H154.698L156.671 45.5088L158.47 42.0598H159.141Z" fill="#121532"></path>
</svg>
